Coordinates
version=1
nRows=6
nColumns=36
inDegrees=yes

Units are S.I. units (second, meters, Newtons, ...)
If the header above contains a line with 'inDegrees', this indicates whether rotational values are in degrees (yes) or radians (no).

endheader
time	pelvis_tilt	pelvis_list	pelvis_rotation	pelvis_tx	pelvis_ty	pelvis_tz	hip_flexion_r	hip_adduction_r	hip_rotation_r	knee_angle_r	knee_angle_r_beta	ankle_angle_r	subtalar_angle_r	mtp_angle_r	hip_flexion_l	hip_adduction_l	hip_rotation_l	knee_angle_l	knee_angle_l_beta	ankle_angle_l	subtalar_angle_l	mtp_angle_l	lumbar_extension	lumbar_bending	lumbar_rotation	arm_flex_r	arm_add_r	arm_rot_r	elbow_flex_r	pro_sup_r	arm_flex_l	arm_add_l	arm_rot_l	elbow_flex_l	pro_sup_l
      4.93333330	      4.86118876	      5.94467977	     -1.44648768	      0.12130235	      0.89671670	      0.06662212	      2.82832563	      1.85065409	     -3.59904784	      8.01817155	      0.13994349	      4.43482220	     -3.76699990	     -7.49999987	     29.24381162	     -5.85201181	     -0.16543436	      4.96848407	      0.08671641	    -21.31073096	      3.83509377	     -7.49999987	     -6.43201479	     -4.45964453	      0.91445493	     29.53902821	      2.39577140	     63.99357767	    131.56656311	     91.70697906	     33.80691068	      7.43727063	     61.39643606	    122.74186869	     74.71377478
      4.95000000	      4.76619371	      5.93849731	     -1.64319429	      0.12113098	      0.89606770	      0.06701601	      2.90757408	      1.92480321	     -3.45969682	      8.03141027	      0.14017455	      4.49289131	     -3.59366847	     -7.49999987	     29.44193790	     -5.95698783	     -0.48057830	      4.97610891	      0.08684948	    -21.46968417	      4.02645464	     -7.49999987	     -6.21988341	     -4.47049498	      1.04163619	     29.58490750	      2.44753653	     63.98647369	    131.61585338	     90.25963905	     33.81094787	      7.45740987	     61.44581900	    122.89568569	     73.76038804
      4.96666670	      4.92299573	      5.69868929	     -1.71110332	      0.12147567	      0.89826801	      0.06690354	      2.95443550	      2.05956137	     -3.41959527	      8.08038722	      0.14102936	      4.29025846	     -3.81309002	     -7.49999987	     29.26940437	     -6.22306722	     -0.11361089	      5.19183070	      0.09061454	    -21.40551436	      3.64652351	     -7.49999987	     -6.50229845	     -4.20377956	      0.86905822	     29.75398253	      2.52821390	     63.94239673	    131.24792772	     94.19183096	     33.78010360	      7.34991417	     61.27934396	    122.76589628	     76.25564115
      4.98333330	      4.93837060	      5.65460551	     -1.86458418	      0.12064878	      0.89880489	      0.06715160	      2.95641468	      2.11205857	     -3.51054489	      7.98930722	      0.13943972	      4.12956430	     -3.90486953	     -7.49999987	     29.33388793	     -6.26367415	     -0.13464234	      5.40555509	      0.09434473	    -21.20289053	      3.37320309	     -7.49999987	     -6.55938890	     -4.19996078	      0.93156165	     29.80837852	      2.49876843	     63.91802975	    131.16556975	     92.30798323	     33.83298362	      7.21239803	     61.21652271	    122.74841947	     74.88283061
      5.00000000	      4.90718785	      5.68621860	     -2.02370091	      0.12054667	      0.89715173	      0.06744554	      2.91394913	      2.20491272	     -3.82392976	      8.26094640	      0.14418071	      4.47308937	     -3.86180486	     -7.49999987	     29.43813867	     -6.17038767	     -0.88651914	      5.42188575	      0.09462976	    -20.80867629	      3.30366522	     -7.49999987	     -6.60347875	     -4.26391581	      0.90544666	     29.97045109	      2.58906191	     64.02764702	    131.03086306	     90.80010103	     33.91948361	      7.11351945	     61.10126736	    122.76633500	     74.10755859
      5.01666670	      4.77276244	      5.85440312	     -1.95098314	      0.12029941	      0.89371576	      0.06755138	      3.06828642	      2.11948703	     -4.21490231	      8.83820581	      0.15425579	      5.51695030	     -3.37530338	     -7.49999987	     29.71806677	     -5.88416170	     -1.06464425	      5.53083707	      0.09653132	    -20.56167639	      2.97830281	     -7.49999987	     -6.64662174	     -4.59928864	      0.79327985	     30.04870794	      2.76044992	     63.69935065	    130.98681563	     94.33891993	     34.12517245	      7.12395961	     60.97120139	    122.70501967	     76.08887167
